<svg width="173" height="57" viewBox="0 0 173 57" fill="none" xmlns="http://www.w3.org/2000/svg">
<path d="M0.423387 42.7032V1.26428H16.0518C20.3536 1.26428 23.6095 2.27065 25.8196 4.2834C28.0296 6.29615 29.1347 8.82196 29.1347 11.8608C29.1347 14.505 28.4243 16.6164 27.0035 18.1951C25.5828 19.7342 23.866 20.7801 21.8533 21.3326C23.4319 21.6483 24.8329 22.2798 26.0563 23.2269C27.3193 24.1741 28.3059 25.3581 29.0163 26.7788C29.7267 28.1996 30.0818 29.7388 30.0818 31.3963C30.0818 33.5275 29.5491 35.4613 28.4835 37.1978C27.4574 38.8948 25.938 40.2366 23.9252 41.2233C21.9125 42.2099 19.4458 42.7032 16.5254 42.7032H0.423387ZM6.69843 19.0238H15.2822C17.6896 19.0238 19.5248 18.4713 20.7877 17.3663C22.0506 16.2218 22.682 14.6629 22.682 12.6896C22.682 10.7558 22.0506 9.21661 20.7877 8.07211C19.5642 6.9276 17.6896 6.35535 15.1638 6.35535H6.69843V19.0238ZM6.69843 37.553H15.6966C18.2224 37.553 20.176 36.961 21.5573 35.777C22.978 34.593 23.6884 32.9355 23.6884 30.8043C23.6884 28.6732 22.9583 26.9959 21.4981 25.7725C20.0378 24.5096 18.0645 23.8781 15.5782 23.8781H6.69843V37.553ZM36.7232 42.7032V13.3408H42.347L42.8798 18.9054C43.9059 16.9716 45.3267 15.4522 47.1421 14.3472C48.997 13.2026 51.2268 12.6304 53.8316 12.6304V19.2014H52.1148C50.3783 19.2014 48.8194 19.4974 47.4381 20.0894C46.0963 20.6419 45.011 21.6088 44.1822 22.9901C43.3929 24.332 42.9982 26.2066 42.9982 28.614V42.7032H36.7232ZM62.7636 7.77612C61.5796 7.77612 60.593 7.42092 59.8037 6.71054C59.0538 5.96069 58.6789 5.03325 58.6789 3.92821C58.6789 2.82317 59.0538 1.91546 59.8037 1.20508C60.593 0.455232 61.5796 0.0803078 62.7636 0.0803078C63.9476 0.0803078 64.9145 0.455232 65.6643 1.20508C66.4536 1.91546 66.8483 2.82317 66.8483 3.92821C66.8483 5.03325 66.4536 5.96069 65.6643 6.71054C64.9145 7.42092 63.9476 7.77612 62.7636 7.77612ZM59.6261 42.7032V13.3408H65.9011V42.7032H59.6261ZM87.5636 43.4136C84.7221 43.4136 82.216 42.7427 80.0454 41.4009C77.8748 40.059 76.1778 38.2239 74.9543 35.8954C73.7309 33.5669 73.1192 30.9227 73.1192 27.9628C73.1192 25.0029 73.7309 22.3784 74.9543 20.0894C76.1778 17.7609 77.8748 15.9455 80.0454 14.6431C82.2555 13.3013 84.7813 12.6304 87.6228 12.6304C89.9513 12.6304 91.9838 13.0843 93.7203 13.992C95.4962 14.8997 96.8775 16.1823 97.8642 17.8399V0.0803078H104.139V42.7032H98.5153L97.8642 38.145C96.917 39.5263 95.6146 40.7497 93.9571 41.8153C92.2995 42.8808 90.1683 43.4136 87.5636 43.4136ZM88.6884 37.9674C91.3721 37.9674 93.5624 37.0399 95.2594 35.185C96.9959 33.3301 97.8642 30.9425 97.8642 28.022C97.8642 25.0621 96.9959 22.6744 95.2594 20.859C93.5624 19.0041 91.3721 18.0767 88.6884 18.0767C86.0047 18.0767 83.7946 19.0041 82.0581 20.859C80.3217 22.6744 79.4534 25.0621 79.4534 28.022C79.4534 29.9558 79.8481 31.6726 80.6374 33.1723C81.4267 34.672 82.512 35.856 83.8933 36.7242C85.3141 37.553 86.9124 37.9674 88.6884 37.9674ZM124.068 33.7051C122.529 33.7051 121.108 33.5275 119.806 33.1723L117.26 35.6586C117.695 35.9349 118.227 36.1717 118.859 36.369C119.49 36.5663 120.378 36.7439 121.523 36.9018C122.667 37.0597 124.226 37.2175 126.199 37.3754C130.107 37.7306 132.928 38.6777 134.665 40.2169C136.401 41.7166 137.27 43.7294 137.27 46.2552C137.27 47.9916 136.796 49.6295 135.849 51.1686C134.941 52.7473 133.501 54.0102 131.527 54.9573C129.593 55.944 127.107 56.4373 124.068 56.4373C119.964 56.4373 116.629 55.648 114.064 54.0694C111.538 52.5302 110.275 50.182 110.275 47.0247C110.275 45.8013 110.591 44.5779 111.222 43.3544C111.893 42.1705 112.939 41.0457 114.36 39.9801C113.531 39.6249 112.801 39.25 112.169 38.8553C111.577 38.4212 111.045 37.9871 110.571 37.553V36.1322L115.662 30.9227C113.373 28.9495 112.229 26.3645 112.229 23.1677C112.229 21.2339 112.682 19.4777 113.59 17.8991C114.537 16.281 115.899 14.9983 117.675 14.0512C119.451 13.104 121.582 12.6304 124.068 12.6304C125.726 12.6304 127.265 12.8672 128.686 13.3408H139.638V17.4847L134.428 17.7807C135.375 19.3988 135.849 21.1944 135.849 23.1677C135.849 25.141 135.375 26.917 134.428 28.4956C133.52 30.0742 132.178 31.3371 130.403 32.2843C128.666 33.2315 126.555 33.7051 124.068 33.7051ZM124.068 28.7916C125.884 28.7916 127.344 28.318 128.449 27.3708C129.593 26.3842 130.166 25.0029 130.166 23.2269C130.166 21.4115 129.593 20.0302 128.449 19.083C127.344 18.1359 125.884 17.6623 124.068 17.6623C122.213 17.6623 120.714 18.1359 119.569 19.083C118.464 20.0302 117.912 21.4115 117.912 23.2269C117.912 25.0029 118.464 26.3842 119.569 27.3708C120.714 28.318 122.213 28.7916 124.068 28.7916ZM116.195 46.4328C116.195 48.1298 116.945 49.3927 118.444 50.2215C119.944 51.0897 121.819 51.5238 124.068 51.5238C126.239 51.5238 127.995 51.0502 129.337 50.1031C130.679 49.1954 131.35 47.9719 131.35 46.4328C131.35 45.2882 130.896 44.3016 129.988 43.4728C129.08 42.6835 127.364 42.1902 124.838 41.9929C122.944 41.8745 121.266 41.6969 119.806 41.4601C118.425 42.2099 117.478 43.019 116.964 43.8872C116.451 44.7555 116.195 45.604 116.195 46.4328ZM157.812 43.4136C154.931 43.4136 152.366 42.7822 150.117 41.5193C147.906 40.2169 146.17 38.4212 144.907 36.1322C143.644 33.8432 143.013 31.1793 143.013 28.1404C143.013 25.0621 143.624 22.3587 144.848 20.0302C146.111 17.7017 147.847 15.8863 150.057 14.5839C152.307 13.2816 154.912 12.6304 157.872 12.6304C160.753 12.6304 163.259 13.2816 165.39 14.5839C167.521 15.8468 169.178 17.5439 170.362 19.675C171.546 21.8062 172.138 24.1544 172.138 26.7196C172.138 27.1143 172.119 27.5484 172.079 28.022C172.079 28.4561 172.059 28.9495 172.02 29.502H149.169C149.367 32.3435 150.294 34.5141 151.952 36.0138C153.649 37.474 155.602 38.2042 157.812 38.2042C159.588 38.2042 161.068 37.8095 162.252 37.0202C163.476 36.1914 164.383 35.0864 164.975 33.7051H171.25C170.461 36.4677 168.882 38.7764 166.515 40.6313C164.186 42.4862 161.285 43.4136 157.812 43.4136ZM157.812 17.7807C155.721 17.7807 153.866 18.4121 152.248 19.675C150.63 20.8985 149.643 22.7533 149.288 25.2397H165.863C165.745 22.9507 164.936 21.1353 163.436 19.7934C161.937 18.4516 160.062 17.7807 157.812 17.7807Z" fill="black"/>
</svg>
